<?xml version="1.0" encoding="utf-8"?>
<!-- Generator: Adobe Illustrator 21.0.2, SVG Export Plug-In . SVG Version: 6.00 Build 0)  -->
<svg version="1.1" id="レイヤー_1" xmlns="http://www.w3.org/2000/svg" xmlns:xlink="http://www.w3.org/1999/xlink" x="0px"
	 y="0px" viewBox="0 0 1000 1000" style="enable-background:new 0 0 1000 1000;" xml:space="preserve">
<style type="text/css">
	.st0{fill:#150E4C;}
	.st1{fill:#27215B;}
	.st2{fill:#140D4B;}
	.st3{fill:#1C1651;}
	.st4{fill:#971F57;}
	.st5{fill:#9C2A5F;}
</style>
<g id="シェイプ_2_xA0_画像_1_">
	<g>
		<path class="st0" d="M773,633.7c0,2.6,0,5.3,0,7.9c-3.1,6.9-8.7,10.6-15.5,13.6c-66.7,28.9-136.3,46.2-208.8,52.3
			c-5.2,0.5-10.8-0.3-15.7,2c-18.9,0-37.7,0-56.6,0c-1.9-0.1-3.7-1.6-5.7,0c-2.3,0-4.5,0-6.8,0c-0.5-1.6-1.7-1.1-2.7-1.1
			c-24.8-1.7-49.5-4.5-74.1-9.1c-50.4-9.2-99.2-23.3-146-44.3c-6.6-2.9-12-6.7-14.9-13.5c0-2.6,0-5.3,0-7.9
			c2.2-6.9,6.7-11.4,13.6-13.6c2.6,0,5.3,0,7.9,0c0.2,0.2,0.3,0.7,0.7,0.8c76.2,35,156.5,52.4,240.2,54.5
			c66.1,1.6,130.7-8.8,193.9-28.4c23.7-7.4,47.1-15.4,69.2-26.8c2.6,0,5.3,0,7.9,0C766.4,622.3,770.9,626.8,773,633.7z"/>
	</g>
</g>
<g id="シェイプ_コピー_xA0_画像_1_">
	<g>
		<path class="st0" d="M664.3,80c6.2,2.9,10,7.9,13.2,13.8c63,114.8,126.1,229.6,189.2,344.5c6,11,4,20.7-5.3,25.8
			c-7.2,4-13.6,2-19.9-2.5c-34.9-24.8-69.8-49.5-104.6-74.3c-34.1-24.2-68.3-48.4-102.4-72.7c-3.3-2.4-5.2-2.7-8.3,0.6
			c-9.1,9.5-9.2,9.3-3.4,20.8c45.3,90.5,90.6,181.1,135.7,271.7c2.3,4.5,5,6.1,9.7,6.9c50.5,8.9,100.3,20.5,147.8,40.7
			c22,9.3,42.9,20.4,60.2,37.1c10.5,10.2,18.5,21.9,21.3,36.5c0.1,0.5,0.7,0.8,1,1.1c0,6,0,12.1,0,18.1c-1.5,0.3-1.2,1.8-1.5,2.7
			c-3.7,14.2-11.8,25.5-22.4,35.3c-13.7,12.7-29.6,22.1-46.3,30c-43.4,20.5-89.3,32.4-136.1,41.8c-76,15.2-152.9,22.3-230.2,25
			c-1.4,0-3.1-0.9-4,1c-39.3,0-78.5,0-117.8,0c-0.9-1.9-2.6-1-4-1.1c-29.4-1.1-58.8-2.9-88.1-5.4c-57.6-5.1-114.9-13-171.3-26.4
			c-40.2-9.5-79.6-21.2-116.3-40.8c-18.9-10.1-36.3-22.2-48.7-40.4c-4.5-6.8-6.6-14.5-10-21.7c0-6.5,0-12.8,0-19.3
			c3.5-7.4,5.5-15.4,10.2-22.3c12.3-18,29.7-29.9,48.4-39.9c38.2-20.4,79.4-32.3,121.3-41.9c16-3.7,32-6.9,48.1-9.9
			c3.7-0.7,5.3-2.2,6.5-5.7c27.1-81.6,54.2-163.2,81.1-244.8c4.1-12.5,9.4-24.1,16.2-35.2c28.5-47,57-94.1,85.2-141.3
			c3.4-5.5,7.7-9.3,13.7-11.9c73.7-31.5,147.3-63.2,221-94.9c0.7-0.2,1.1-0.8,1.7-1.1C658.3,80,661.3,80,664.3,80z M799.5,389.9
			c0.6,0.3,1,0.8,1.5,1.1c0.5-0.9,0.3-1.6-0.6-2.2c-0.5-1-0.8-2.2-1.4-3.1C751,298.2,702.7,210.7,654.7,123
			c-2.3-4.1-4.1-3.5-7.4-2.2C582,149,516.7,177,451.3,205c-2.9,1.2-4.9,3.2-6.6,5.8c-29.2,48.6-58.4,97.2-87.8,145.7
			c-1.6,2.6-2.8,5.3-3.7,8.2c-5.8,17.6-11.6,35-17.4,52.5C312,488.8,288.3,560.4,264.6,632c-2.6,7.9-7.4,12.8-15.7,14.3
			c-14.3,2.5-28.5,5-42.8,8c-41,8.6-81.3,19.3-119.4,37.3C70.5,699.3,54.8,708,43,722.1c-9.6,11.4-9.5,21.5-0.1,33.1
			c7,8.6,15.9,14.9,25.4,20.6c29.8,17.7,62.3,28.3,95.5,37.1c87.6,23.1,177.1,32.3,267.4,35.9c81.4,3.3,162.6,1,243.6-7.6
			c50.3-5.3,100.2-12.9,149.2-25.1c34.1-8.5,67.5-18.7,98.7-35.1c10.5-5.5,20.5-11.9,29.2-20.2c16.2-15.4,16.3-29,0.2-44.4
			c-4-3.7-8.3-7.2-12.8-10.3c-23.2-15.6-49-25.5-75.4-33.9c-37-11.9-75-20-113.2-26.2c-7.6-1.2-13.1-4.5-16.8-11.7
			c-50.6-101.3-101.2-202.7-152-304c-4.4-8.9-3.4-15.4,3.7-22.5c9.4-9.5,18.9-19,28.4-28.4c8.6-8.6,16.1-9.2,26.2-2.2
			c15.7,11.1,31.4,22.2,47.1,33.3C724.7,337.1,762.2,363.6,799.5,389.9z"/>
	</g>
</g>
<g id="シェイプ_3__x2B__シェイプ_6_コピー__x2B__シェイプ_6_xA0_画像_1_">
	<g>
		<path class="st1" d="M497.9,611.1c3.1,0,6,0,9.1,0c21.5,10.6,43,21.3,64.4,31.9c3.6,1.8,7.6,3.4,9.4,7.6
			c-10.8,6.1-21.9,11.9-32,19.1c-0.3,0.1-0.7,0.1-1,0.1c-14.4-7.2-28.8-14.5-43.1-21.9c-1.9-1-3.6-0.5-5.3,0.3
			c-14.4,7.2-28.9,14.5-43.4,21.6c-0.3,0-0.7,0-1,0c-10.6-5.9-21.4-11.7-32-17.6c1.5-4.8,5.4-6.9,9.5-8.9
			C454.3,632.7,476,622,497.9,611.1z"/>
		<path class="st2" d="M548.8,669.8c10.1-7.2,21.2-13,32-19.1c2.2,1.4,1.5,4.2,3.1,5.8c0,24.1,0,48.4,0,72.5
			c-3.1,6.7-8.5,10.4-14.9,13.5c-18.8,8.9-37.5,18.2-56.2,27.4c-1.8,0.9-3.5,2.3-5.7,2.2c-1-0.1-1.8,0.2-2.5,1c-0.8,0-1.5,0-2.3,0
			c0-12,0-24,0-36c14.7-7.2,29.4-14.5,44.2-21.6c2.6-1.2,3.4-2.9,3.4-5.8c-0.1-11.7,0-23.4-0.1-35.1
			C550,672.8,550.3,671.1,548.8,669.8z"/>
		<path class="st3" d="M502.4,737c0,12,0,24,0,36c-1.5,0-3.1,0-4.5,0c-20.6-10.2-41.2-20.6-62.1-30.6c-6.5-3.2-12-6.8-14.9-13.6
			c0-24.6,0-49,0-73.6c0.7-0.9,1.4-1.8,2-2.7c10.6,5.9,21.4,11.7,32,17.6c0,13.2,0,26.4-0.2,39.6c0,2.8,0.8,4.4,3.4,5.8
			C473,722.5,487.7,729.8,502.4,737z"/>
		<path class="st4" d="M502.4,737c-14.7-7.2-29.4-14.5-44.3-21.6c-2.6-1.2-3.4-2.9-3.4-5.8c0.1-13.2,0.1-26.4,0.2-39.6
			c0.3,0,0.7,0,1,0c0.5,0.6,0.9,1.4,1.5,1.7c14,7.7,28.1,15.3,42.1,22.9c2.6,1.5,4.5,0.5,6.7-0.8c13.8-8,27.6-16,41.6-24
			c0.3,0,0.7-0.1,1-0.1c1.4,1.4,1.1,3.2,1.1,4.8c0,11.7,0,23.4,0.1,35.1c0,2.7-0.7,4.4-3.4,5.8C531.8,722.5,517.1,729.8,502.4,737z"
			/>
		<path class="st5" d="M547.8,669.9c-13.8,7.9-27.7,15.9-41.6,24c-2.3,1.4-4.1,2.3-6.7,0.8c-14-7.7-28.1-15.3-42.1-22.9
			c-0.6-0.3-1-1.1-1.5-1.7c14.5-7.2,28.9-14.4,43.4-21.6c1.7-0.9,3.4-1.4,5.3-0.3C519,655.4,533.4,662.6,547.8,669.9z"/>
	</g>
</g>
</svg>
